<svg xmlns="http://www.w3.org/2000/svg" width="1848.115" height="844" viewBox="0 0 1848.115 844">
  <defs>
    <style>
      .cls-1 {
        fill: #60b293;
        opacity: 0.32;
      }
    </style>
  </defs>
  <g id="About_me" data-name="About me" transform="translate(-28.267 -2160)">
    <path id="Intersection_1" data-name="Intersection 1" class="cls-1" d="M1728.263,939.727q1.4-1.171,2.691-2.473a40.609,40.609,0,0,0,11.815-28.815V750.107a40.676,40.676,0,0,0-40.675-40.675H1537.039a40.744,40.744,0,0,0-40.676,40.675V908.551a40.612,40.612,0,0,0,14.591,31.176h-17.482a47.441,47.441,0,0,1-8.314-26.918V745.849a47.582,47.582,0,0,1,47.623-47.623h173.683a47.583,47.583,0,0,1,47.623,47.623v166.96a47.44,47.44,0,0,1-8.314,26.918Zm-1600.493,0c-42.273-20.313-68.8-49.552-68.8-82.043,0-61.334,94.514-111.056,211.087-111.056S481.145,796.35,481.145,857.684c0,32.491-26.527,61.73-68.8,82.043ZM312.4,919.9h24.241l5.752-29.594h20.757c9.165,0,16.711-.985,22.621-2.885a42.914,42.914,0,0,0,16.131-9.695,50.245,50.245,0,0,0,9.868-12.369,48.964,48.964,0,0,0,5.365-14.9q3.853-19.794-5.823-30.807-9.657-11.059-30.677-11.05h-46.6Zm-189.186-.017h24.24L153.2,890.3h20.775c9.147,0,16.693-.985,22.6-2.885a42.676,42.676,0,0,0,16.131-9.695,48.5,48.5,0,0,0,15.233-27.272q3.853-19.794-5.805-30.825-9.657-11.058-30.677-11.049H144.848Zm100.9-29.559h24.063l12.384-63.78h19.209q9.262,0,12.085,3.061c1.882,2.023,2.3,5.859,1.2,11.454L283.5,890.3h24.433l10.062-51.8q3.033-15.809-4.627-22.855-7.677-7.047-27.9-7.056H264.042L269.794,779H245.748Zm983.508,6.831-18.683-211.927H1394.5l-18.683,211.927-84.1,27.95Zm31.851-39.087,52.89,15.635,52.568-15.367,6.853-78.5h-59.689l.161-.054,61.722-26.4,2.57-25.326H1226.891l3.1,25.326h65.791l-3.479,1.445L1232.3,779.838l1.927,24.791.107-.053v.053l89.024.268-1.981,32.983-29.282,8.246L1263.936,839l-1.714-20.507h-26.177Zm-299.208,39.02L921.587,685.226h205.5l-18.677,211.861-84.34,27.94Zm30.985-37.523,52.819,14.612h.589v-.16l52.392-14.452,7.278-79.434H990.354l-2.194-26.443h98.361l2.354-25.532H959.85l6.85,77.935h89.317l-3.211,33.294-28.738,7.762-28.631-7.762-1.873-20.394H968.037Zm667.2,20.189a1.724,1.724,0,0,1-.9-1.793V861.825c0-1.12.561-1.457,1.233-.9a42.053,42.053,0,0,0,22.411,6.5c8.627,0,12.214-3.586,12.214-8.516,0-3.922-2.466-7.4-13.558-13.223-15.575-7.4-21.963-15.016-21.963-27.565,0-14.118,10.981-25.772,30.142-25.772,9.413,0,16.36,1.457,19.946,3.026a2.42,2.42,0,0,1,1.12,2.128v15.016a1.077,1.077,0,0,1-1.569,1.12c-4.93-2.913-12.438-4.706-19.5-4.706-8.627,0-11.541,4.37-11.541,7.956,0,3.921,2.017,6.723,13.558,12.662,17.145,8.292,22.523,16.248,22.523,28.013,0,17.48-13.334,26.893-31.375,26.893C1651.67,884.46,1643.153,882.442,1638.447,879.753Zm-85.945,3.474c-.9,0-1.233-.337-1.233-1.232V763.889c0-.672.224-1.233,1.12-1.233,7.06-.336,17.144-.56,28.013-.56,30.254,0,43.477,16.584,43.477,37.874,0,27.789-20.394,39.668-45.046,39.668-4.146,0-5.6-.224-8.516-.224v42.581c0,.9-.337,1.232-1.233,1.232Zm17.816-103.538v42.244c2.465.224,4.482.224,8.852.224,12.774,0,24.988-4.482,24.988-21.85,0-13.9-8.74-20.954-23.419-20.954C1576.37,779.353,1572.224,779.577,1570.319,779.689ZM345.82,872.727l9.077-46.59h16.588c9.2,0,15.357,1.706,18.418,5.1s3.817,9.237,2.2,17.506q-2.533,12.932-9.692,18.457t-21.848,5.524Zm-189.2,0,9.059-46.59h16.605c9.218,0,15.34,1.706,18.418,5.1q4.591,5.094,2.182,17.506-2.507,12.932-9.675,18.457t-21.848,5.524ZM59.934,676.965A51.091,51.091,0,0,1,44.97,640.777V461.471a51.088,51.088,0,0,1,51.152-51.151H282.68a51.087,51.087,0,0,1,51.151,51.151V640.777a51.087,51.087,0,0,1-51.084,51.151H96.057A51.084,51.084,0,0,1,59.934,676.965ZM57.006,466.037V636.211a43.745,43.745,0,0,0,43.681,43.681H278.122a43.552,43.552,0,0,0,43.537-43.809l-.008-170.053a43.688,43.688,0,0,0-43.681-43.673H100.688A43.746,43.746,0,0,0,57.006,466.037ZM1872.533,676.226c-.551,0-1.105-.487-1.617-1.513-20.45-39.337-57.422-29.11-76.3-19.669a16.42,16.42,0,0,1-4.712,3.142h-.8c-38.542,21.254-92.023,22.826-144.718,0-44.055-18.083-81.027-51.92-104.619-88.9,13.38,9.442,25.162,17.312,39.328,23.6,56.637,25.968,112.487,24.41,152.6,0-56.636-43.266-103.833-99.9-140.02-146.322-7.069-8.656-14.152-17.311-18.878-25.968,43.269,40.137,112.487,89.687,136.864,103.856-51.909-54.293-98.321-122.725-95.951-120.368,81.785,82.6,158.072,129.809,158.072,129.81a72.568,72.568,0,0,0,6.312,3.928,77.335,77.335,0,0,0,3.927-12.584c11.8-48.779-1.571-103.056-35.4-148.693,77.086,45.636,121.927,132.166,103.047,206.127-.786,1.571-.786,3.143-1.57,4.713h.013c34.936,42.8,29.786,88.84,24.424,88.844ZM198.808,561.712H198.8c0-28.019,18.624-49.931,48.238-49.931a53.386,53.386,0,0,1,6.259.24V480.143a1.2,1.2,0,0,1,1.219-1.228h18.993c.986,0,1.228.369,1.228.939V590.387a82.708,82.708,0,0,0,.617,11.747c0,.762-.24.987-.986,1.372a71.918,71.918,0,0,1-30.8,6.956h-.329C217.273,610.466,198.808,594.344,198.808,561.712ZM246.333,529.7c-15.173,0-25.756,11.7-25.756,31.076,0,22.145,10.808,31.028,24.44,31.028a22.093,22.093,0,0,0,8.28-1.308l.008-59.576a18.534,18.534,0,0,0-6.622-1.223C246.566,529.693,246.45,529.7,246.333,529.7ZM171.207,608.77a2.261,2.261,0,0,1-2.488-1.548c-7.7-15.888-15.566-31.775-23.605-48.84h-.225q-11.1,24.654-22.9,48.984a2.249,2.249,0,0,1-2.158,1.308H99.981c-1.219,0-1.308-.986-.7-1.685l32.953-62.817-31.87-63.555c-.762-.987,0-1.693.7-1.693h20.693c1.22,0,1.693.24,2.166,1.308q11.522,24.021,22.522,48.287h.224c7-15.888,14.724-32.392,22.145-48.143.618-.986.987-1.6,2.166-1.6h19.362c.986,0,1.363.762.762,1.694L159.171,542.1l33.716,64.742c.617.987.24,1.926-.715,1.926ZM1478.24,194.6a166.678,166.678,0,0,1,32.3-98.876h92.9a189.581,189.581,0,0,0-35.775,25.755c-25.708,24.011-29.795,44.939-28.106,53.686,5.956,30.848,48.22,51.021,65.6,65.992v.084c-5.119,2.511-42.627,21.332-51.414,40.809-9.416,20.508,1.464,35.172,8.578,37.041,21.969,6.083,44.565-5.022,56.7-23.006,11.717-17.593,10.685-40.195,5.635-51.286,6.919-1.884,15.065-2.721,25.526-1.451,29.307,3.348,35.165,21.765,33.9,29.3s-7.3,11.914-9.4,13.17-2.721,1.674-2.525,2.525c.21,1.255,1.27,1.255,2.929,1.047,2.3-.418,15.287-6.278,15.916-20.523.627-18-16.543-38.074-47.076-37.669-12.554.223-20.519,1.269-26.154,3.571a5.034,5.034,0,0,0-1.464-1.464c-18.831-20.3-53.771-34.531-52.307-61.528.418-9.835,3.975-35.771,66.953-67.163a185.525,185.525,0,0,1,20.849-8.888h74.327a16.416,16.416,0,0,1,4.849,5.958c10.225,22.379-21.983,64.038-75.755,70.093-20.5,2.3-31.174-5.636-33.908-8.58-2.915-3.139-3.334-3.349-4.38-2.707-1.673.838-.627,3.558,0,5.232,1.674,4.186,8.16,11.511,19.472,15.278,9.82,3.139,33.895,5.008,62.769-6.278,32.416-12.542,57.733-47.5,50.41-76.8l1.018.933a30.78,30.78,0,0,0-.973-3.125h31.08A167.4,167.4,0,1,1,1478.24,194.6ZM161.358,355.945h-.281c-1.683-.467-3.272-.841-4.955-1.309l23.748-68.347h.094l30.667-89.478,49.46,135.853c.281.561,5.89,13,8.509,18.606-2.431.841-4.862,1.683-7.294,2.431a172.284,172.284,0,0,1-30.387,6.638,146.7,146.7,0,0,1-23.28,1.683A179.924,179.924,0,0,1,161.358,355.945Zm-23.7-8.228c-59.09-25.15-102.1-81.062-108.551-147.633-.561-5.8-.841-11.687-.841-17.577,0-23.468,6.358-49.46,15.708-70.59,2.664.139,4.347.092,6.3.046s4.172-.094,7.913.046l86.953,238.7C142.615,349.774,140.09,348.746,137.66,347.717Zm164.058-62.672L338.19,179.528c9.166-23.1,12.252-41.533,12.252-57.809,0-5.893.281-10.85-.094-17.586v-.562a66.3,66.3,0,0,0-.965-7.845h15.6q3.08,5.536,5.754,11.307a178.8,178.8,0,0,1,16.646,75.582,160.96,160.96,0,0,1-1.777,24.321c-8.136,60.522-46.76,111.6-99.787,137.227-1.683.841-3.273,1.589-4.956,2.338Zm910.808,38.925a16.3,16.3,0,0,1-2.874-.273c-66.775-22.374-113.523-85.948-113.523-160.241a168.809,168.809,0,0,1,13.823-67.73H1169.4a54.572,54.572,0,0,0,3.344,19.162c-10.716,11.79-15.806,21.035-15.806,39.457,0,64.445,37.774,69.871,75.213,74.024-4.822,4.422-9.176,11.858-10.716,22.577-9.577,4.421-34.158,11.857-48.825-14a35.349,35.349,0,0,0-25.852-17.284c-16.409-.2-1.072,10.317-1.072,10.317,10.984,5.024,18.619,24.518,18.619,24.518,9.846,30.012,56.729,19.964,56.729,19.964,0,14.068.2,36.978.2,41.132,0,3.826-2.327,8.378-8.711,8.378Zm91.83-8.512c0-5.494.2-33.429.2-56,0-15.743-5.224-25.791-11.386-31.083,37.439-4.22,76.888-9.378,76.888-74.024,0-18.355-6.564-27.6-17.28-39.457a54.414,54.414,0,0,0,3.344-19.162h57.649a162.1,162.1,0,0,1,14.556,67.73c0,74.292-45.41,137.866-112.385,160.107a16.048,16.048,0,0,1-2.855.273C1306.735,323.837,1304.356,319.284,1304.356,315.457Zm-628.166-3.89V95.727h299.1V311.567Zm78.613-48.6c3.8,7.853,9.346,14.609,16.5,18.909,10.656,6.358,24.975,8.414,39.967,5.049,9.758-2.817,18.17-8.614,22.569-17.589,6.356-11.593,5.01-25.8,4.948-41.709.149-25.6,0-51.219,0-77.022l.049-.7H810.822c0,24.158-.112,48.166-.112,72.361,0,15.357.785,29.455-1.72,33.793-4.112,8.588-14.705,7.492-19.516,5.983-4.936-2.444-7.44-5.81-10.345-10.658a10.716,10.716,0,0,0-1.582-2.443Zm98.764-4.325c2.617,5.983,5.609,8.588,10.1,13.823,21.685,21.889,75.9,20.767,85.629-12.515.362-1.122,2.991-8.788.923-20.568l.573.835c-2.182-13.649-11.066-25.117-37.425-35.813-9.173-4.3-19.367-7.292-22.395-14.21-1.135-4.113-1.309-6.357-.573-8.788,1.869-8.052,11.4-10.471,18.88-8.227,4.86,1.5,9.346,5.235,12.164,11.218,12.886-8.427,12.886-8.427,21.871-14.024-3.364-5.235-5.035-7.492-7.3-9.723-7.852-8.788-18.307-13.275-35.319-12.889l-8.786,1.11c-8.425,2.057-16.45,6.544-21.31,12.527-14.207,16.093-10.108,44.14,7.091,55.732,17.011,12.714,41.886,15.506,45.064,27.485,2.991,14.584-10.842,19.259-24.5,17.576-10.107-2.244-15.7-7.3-21.871-16.654Zm719.564,44.241c-6.277-3.655-3.152-18.625,8.146-30.554,12.149-12.808,29.571-21.053,29.571-21.053v-.042l1.507-.85a42.8,42.8,0,0,1-.335,25l-.907,2.511c-.335.851-.724,1.675-1.088,2.456a46.917,46.917,0,0,1-7.741,11.3c-7.484,8.14-17.243,12.4-24.006,12.4A10.287,10.287,0,0,1,1573.132,302.882ZM108.783,106.659c9.726-.468,18.518-1.5,18.518-1.5a6.711,6.711,0,0,0,5.523-9.436h22.718c-1.714,3.828-.107,9.235,5.426,9.529,0,0,8.137,1.029,16.927,1.5L202.959,175.6,167.608,281.583Zm121.3.094c9.725-.468,18.423-1.5,18.423-1.5,5.461-.639,7.1-5.825,5.468-9.529h33.821c1.246,11.652,8.235,22.008,15.609,34.131,6.172,10.758,13.373,24.6,13.373,44.527,0,13.844-4.115,31.149-12.251,52.1l-16.179,53.88ZM1200.008,260.86c0-1.339,1.54-2.411,3.482-2.411,2.01-.2,3.751.871,3.751,2.411,0,1.34-1.541,2.412-3.483,2.412-.179.016-.355.024-.525.024C1201.307,263.3,1200.008,262.276,1200.008,260.86Zm12.926-.87c-.2-1.541,1.139-2.813,3.081-3.282,1.943-.2,3.751.67,3.952,1.942.2,1.34-1.138,2.613-3.081,3.082a4.792,4.792,0,0,1-1.087.128C1214.28,261.859,1213.1,261.079,1212.934,259.989Zm-23.642,1.138c-2.01-.4-3.349-1.942-2.88-3.282s2.411-2.01,4.153-1.541c2.009.6,3.281,2.144,2.88,3.484a2.723,2.723,0,0,1-2.731,1.6A3.96,3.96,0,0,1,1189.292,261.128Zm-12.725-7.5c-1.541-1.273-1.942-3.283-.871-4.154.871-1.072,2.88-.871,4.353.67,1.34,1.273,1.741,3.282.871,4.154a1.921,1.921,0,0,1-1.54.672A4.147,4.147,0,0,1,1176.566,253.625Zm-8.506-10.049c-1.072-1.541-1.072-3.283,0-3.953,1.071-.871,2.813-.2,3.75,1.34,1.072,1.541,1.072,3.282,0,4.154a1.364,1.364,0,0,1-.847.259A3.914,3.914,0,0,1,1168.061,243.577Zm-6.363-9.044c-1.138-1.273-1.339-2.813-.469-3.483.871-.871,2.411-.4,3.483.67,1.138,1.273,1.339,2.813.469,3.483a1.579,1.579,0,0,1-1.151.454A3.525,3.525,0,0,1,1161.7,234.533Zm-6.161-6.3c-1.34-.67-2.01-1.742-1.541-2.612.469-.671,1.541-.871,2.88-.469,1.339.67,2.01,1.742,1.541,2.612a1.666,1.666,0,0,1-1.549.864A2.522,2.522,0,0,1,1155.536,228.236Z" transform="translate(0 2064.273)"/>
  </g>
</svg>
