<svg xmlns="http://www.w3.org/2000/svg" width="1897.161" height="794.474" viewBox="0 0 1897.161 794.474">
  <defs>
    <style>
      .cls-1 {
        opacity: 0.997;
      }

      .cls-2 {
        fill: #53a083;
        opacity: 0.32;
      }
    </style>
  </defs>
  <g id="Group_18" data-name="Group 18" class="cls-1" transform="translate(267.664 -2536.352)">
    <path id="Icon_awesome-css3-alt" data-name="Icon awesome-css3-alt" class="cls-2" d="M0,2.25,15.58,178.986l70.134,23.309,70.134-23.309L171.428,2.25ZM139.777,37.972l-2.143,21.121L86.161,81.107l-.134.045H135.8l-5.714,65.461L86.25,159.428,42.143,146.389l-2.857-33h21.83l1.429,17.1,23.482,5.939,24.42-6.877,1.652-27.506-74.241-.223v-.045l-.089.045L36.161,81.151,86.205,60.3l2.9-1.206H34.241L31.652,37.972Z" transform="translate(-261.651 2758.543)"/>
    <path id="Icon_awesome-html5" data-name="Icon awesome-html5" class="cls-2" d="M0,2.25,15.58,178.986l69.911,23.309,70.357-23.309L171.429,2.25ZM137.589,59.361H55.536l1.83,22.058h78.393l-6.071,66.265L85.982,159.74v.134h-.491l-44.063-12.19L38.75,113.837H60.045l1.563,17.013,23.884,6.475,23.973-6.475,2.679-27.774H37.634L31.92,38.062H139.554Z" transform="translate(-261.651 2979.348)"/>
    <path id="Icon_simple-php" data-name="Icon simple-php" class="cls-2" d="M87.625,65.032h-11.8L69.387,98.139H79.862q10.425,0,15.525-3.926T102.262,81.1q1.725-8.814-1.55-12.44c-2.187-2.413-6.537-3.626-13.087-3.626ZM150,8.532C67.162,8.532,0,43.865,0,87.45s67.162,78.93,150,78.93,150-35.345,150-78.93S232.837,8.532,150,8.532ZM109.25,101.69a30.335,30.335,0,0,1-11.462,6.889,53.4,53.4,0,0,1-16.062,2.05H66.962l-4.088,21.017H45.65L61.025,52.554H94.15q14.944,0,21.8,7.852t4.125,21.9A34.468,34.468,0,0,1,109.25,101.69Zm50.3,8.939,6.788-35c.787-3.976.488-6.7-.85-8.139s-4.2-2.175-8.588-2.175H143.25l-8.8,45.323h-17.1l15.375-79.105h17.088l-4.088,21.03H160.95q14.381,0,19.825,5.014t3.288,16.241l-7.15,36.808H159.55Zm94.963-28.319A34.788,34.788,0,0,1,250.7,92.9a35.7,35.7,0,0,1-7.012,8.789,30.5,30.5,0,0,1-11.463,6.889,53.43,53.43,0,0,1-16.075,2.05H201.4l-4.087,21.03H180.087l15.375-79.093h33.112q14.944,0,21.8,7.852,6.863,7.82,4.138,21.892ZM222.075,65.032H210.288l-6.45,33.107h10.475q10.444,0,15.525-3.926,5.1-3.938,6.887-13.115c1.15-5.876.613-10.027-1.562-12.44s-6.55-3.626-13.088-3.626Z" transform="translate(436.617 2527.82)"/>
    <path id="Icon_simple-swift" data-name="Icon simple-swift" class="cls-2" d="M186.957,129.822c.476-.953.476-1.905.952-2.858C199.357,82.118,172.168,29.65,125.427,1.979c20.513,27.671,28.618,60.583,21.465,90.16a46.926,46.926,0,0,1-2.381,7.63,43.988,43.988,0,0,1-3.827-2.382S94.428,68.763,44.838,18.677c-1.437-1.429,26.7,40.065,58.18,72.985C88.236,83.07,46.266,53.026,20.03,28.689c2.866,5.248,7.161,10.5,11.447,15.745,21.942,28.148,50.56,62.488,84.9,88.722-24.323,14.8-58.188,15.745-92.53,0C15.259,129.345,8.115,124.573,0,118.849c14.3,22.423,36.723,42.941,63.435,53.905,31.952,13.84,64.379,12.887,87.75,0h.485a9.961,9.961,0,0,0,2.858-1.905c11.447-5.725,33.865-11.926,46.265,11.926,3.334,6.678,9.534-24.328-13.828-52.953Z" transform="translate(1399.913 2534.373)"/>
    <path id="Icon_awesome-github" data-name="Icon awesome-github" class="cls-2" d="M61.6,145.177c0,.743-.854,1.337-1.931,1.337-1.225.111-2.079-.483-2.079-1.337,0-.743.854-1.337,1.931-1.337C60.633,143.729,61.6,144.323,61.6,145.177Zm-11.547-1.671c-.26.743.483,1.6,1.6,1.82a1.741,1.741,0,0,0,2.3-.743c.223-.743-.483-1.6-1.6-1.931A1.906,1.906,0,0,0,50.051,143.506Zm16.411-.631c-1.077.26-1.819.966-1.708,1.82.111.743,1.077,1.226,2.191.966,1.077-.26,1.819-.966,1.708-1.708C68.541,143.246,67.539,142.763,66.462,142.875ZM90.893.562C39.394.562,0,39.669,0,91.179c0,41.186,25.916,76.43,62.935,88.834,4.753.854,6.423-2.08,6.423-4.494,0-2.3-.111-15-.111-22.8,0,0-25.991,5.571-31.449-11.067,0,0-4.233-10.807-10.322-13.592,0,0-8.5-5.831.594-5.719A19.6,19.6,0,0,1,42.4,131.919c8.131,14.335,21.758,10.213,27.067,7.762.854-5.942,3.267-10.064,5.941-12.515-20.755-2.3-41.7-5.311-41.7-41.037,0-10.213,2.822-15.338,8.763-21.874-.965-2.414-4.121-12.367.965-25.217,7.76-2.414,25.619,10.027,25.619,10.027a87.7,87.7,0,0,1,46.635,0s17.859-12.478,25.619-10.027c5.087,12.887,1.931,22.8.965,25.217,5.941,6.573,9.579,11.7,9.579,21.874,0,35.838-21.869,38.7-42.625,41.037,3.416,2.934,6.312,8.5,6.312,17.232,0,12.515-.111,28-.111,31.047,0,2.414,1.708,5.348,6.423,4.494,37.13-12.33,62.3-47.573,62.3-88.759C184.163,39.669,142.392.562,90.893.562ZM36.09,128.651c-.483.371-.371,1.226.26,1.931.594.594,1.448.854,1.931.371.483-.371.371-1.226-.26-1.931C37.427,128.428,36.573,128.168,36.09,128.651Zm-4.01-3.008c-.26.483.111,1.077.854,1.448a1.1,1.1,0,0,0,1.6-.26c.26-.483-.111-1.077-.854-1.448C32.934,125.16,32.34,125.271,32.08,125.643Zm12.03,13.221c-.594.483-.371,1.6.483,2.3.854.854,1.931.966,2.413.371.483-.483.26-1.6-.483-2.3C45.706,138.381,44.593,138.269,44.11,138.864ZM39.877,133.4c-.594.371-.594,1.337,0,2.191s1.6,1.226,2.079.854a1.694,1.694,0,0,0,0-2.3C41.437,133.293,40.471,132.922,39.877,133.4Z" transform="translate(1215.752 3148.715)"/>
    <path id="Icon_simple-sass" data-name="Icon simple-sass" class="cls-2" d="M91.748,0A91.748,91.748,0,1,1,0,91.748,91.752,91.752,0,0,1,91.748,0ZM73.513,122.315a23.447,23.447,0,0,1-.184,13.7l-.5,1.376c-.184.466-.4.917-.6,1.346a25.72,25.72,0,0,1-4.243,6.193c-5.337,5.8-12.784,8.005-15.979,6.155-3.441-2-1.728-10.207,4.465-16.744,6.659-7.019,16.209-11.537,16.209-11.537v-.023Zm75.776-83.039C145.145,22.967,118.118,17.608,92.543,26.7,77.336,32.1,60.859,40.6,49.016,51.677,34.925,64.835,32.685,76.3,33.61,81.1c3.265,16.9,26.431,27.96,35.957,36.164v.046C66.762,118.683,46.2,129,41.386,139.671c-5.161,11.239.8,19.275,4.7,20.3,12.042,3.333,24.428-2.752,31.08-12.608,6.422-9.641,5.857-22.027,3.089-28.105a35.674,35.674,0,0,1,13.992-.8c16.063,1.835,19.275,11.927,18.579,16.056a11.025,11.025,0,0,1-5.153,7.217c-1.147.7-1.491.917-1.384,1.384.115.688.7.688,1.606.573,1.262-.229,8.38-3.441,8.724-11.247.344-9.863-9.068-20.865-25.8-20.643-6.881.122-11.247.7-14.336,1.957a2.77,2.77,0,0,0-.8-.8C65.355,101.832,46.2,94.034,47.005,79.239c.229-5.39,2.179-19.6,36.7-36.806,28.327-14.114,50.928-10.207,54.827-1.606,5.6,12.264-12.05,35.093-41.523,38.412-11.239,1.262-17.088-3.089-18.587-4.7-1.6-1.72-1.827-1.835-2.4-1.483-.917.459-.344,1.95,0,2.867.917,2.294,4.473,6.308,10.673,8.372,5.383,1.72,18.579,2.745,34.405-3.441,17.768-6.873,31.645-26.033,27.631-42.089l.558.512Z" transform="translate(1446.001 3147.33)"/>
    <g id="Icon_ionic-logo-wordpress" data-name="Icon ionic-logo-wordpress" transform="translate(990.104 3149.277)">
      <path id="Path_8" data-name="Path 8" class="cls-2" d="M41.367,19.076,26.033,63.815h-.047L14.112,97.989c.841.234,1.636.421,2.478.655h.14a90,90,0,0,0,23.141,3.039,73.385,73.385,0,0,0,11.641-.842,86.157,86.157,0,0,0,15.194-3.319h0c1.215-.374,2.431-.795,3.646-1.215-1.309-2.8-4.114-9.023-4.254-9.3Z" transform="translate(49.817 77.918)"/>
      <path id="Path_9" data-name="Path 9" class="cls-2" d="M12.354,12.691C7.679,23.257,4.5,36.253,4.5,47.988c0,2.945.14,5.89.421,8.789A89.87,89.87,0,0,0,59.2,130.594c1.215.514,2.478,1.029,3.74,1.5L19.46,12.738C15.72,12.6,15.019,12.832,12.354,12.691Z" transform="translate(-4.5 41.854)"/>
      <path id="Path_10" data-name="Path 10" class="cls-2" d="M165.808,56.6a87.918,87.918,0,0,0-7.061-12.441c-.748-1.123-1.59-2.245-2.385-3.368a90.261,90.261,0,0,0-39.7-30.215A88.455,88.455,0,0,0,84.3,4.5,89.547,89.547,0,0,0,14.441,38.036,91.7,91.7,0,0,0,6.258,50.009c6.64.047,14.87.047,15.805.047,8.464,0,21.51-1.029,21.51-1.029,4.4-.281,4.863,6.127.514,6.642,0,0-4.4.514-9.259.748l29.413,87.464L81.918,90.888,69.386,56.464c-4.4-.234-8.464-.748-8.464-.748-4.4-.234-3.834-6.922.468-6.642,0,0,13.327,1.029,21.276,1.029,8.464,0,21.51-1.029,21.51-1.029,4.349-.281,4.91,6.127.514,6.642,0,0-4.349.514-9.212.748l29.132,86.809,8.09-26.941c4.068-10.477,6.126-19.13,6.126-26.052,0-9.962-3.6-16.885-6.687-22.264-4.068-6.688-7.9-12.3-7.9-18.9,0-7.437,5.611-14.359,13.561-14.359h1.029c12.252-.327,16.273,11.833,16.787,20.112v.281c.187,3.368.047,5.847.047,8.793,0,8.138-1.543,17.352-6.126,28.905L131.3,145.611,120.87,176.341c.842-.374,1.637-.748,2.478-1.169a89.759,89.759,0,0,0,49.895-68.615,80.5,80.5,0,0,0,.888-12.161A89.4,89.4,0,0,0,165.808,56.6Z" transform="translate(5.43 -4.5)"/>
    </g>
    <path id="Icon_simple-javascript" data-name="Icon simple-javascript" class="cls-2" d="M0,0H183.455V183.5H0ZM168.427,139.732c-1.338-8.372-6.788-15.406-22.955-21.966-5.626-2.638-11.879-4.473-13.736-8.716-.7-2.523-.8-3.9-.352-5.39,1.147-4.939,6.994-6.422,11.581-5.046a12.436,12.436,0,0,1,7.461,6.881c7.9-5.168,7.9-5.168,13.415-8.6a31.556,31.556,0,0,0-4.479-5.964c-4.816-5.39-11.229-8.143-21.663-7.906l-5.389.68c-5.167,1.262-10.09,4.014-13.071,7.684-8.714,9.871-6.2,27.073,4.349,34.184,10.434,7.8,25.691,9.511,27.641,16.859,1.835,8.945-6.65,11.813-15.028,10.78-6.2-1.376-9.631-4.48-13.415-10.215L108.8,151.032c1.605,3.67,3.44,5.268,6.192,8.479,13.3,13.426,46.552,12.738,52.522-7.676a25.882,25.882,0,0,0,.566-12.615ZM99.761,84.339H82.578c0,14.817-.069,29.543-.069,44.383,0,9.419.482,18.067-1.055,20.727-2.522,5.268-9.02,4.6-11.97,3.67-3.027-1.5-4.563-3.563-6.344-6.537a6.558,6.558,0,0,0-.971-1.5l-13.95,8.6a27.041,27.041,0,0,0,10.121,11.6c6.536,3.9,15.318,5.161,24.514,3.1C88.838,166.652,94,163.1,96.7,157.592c3.9-7.11,3.073-15.826,3.035-25.582.092-15.7,0-31.416,0-47.242l.031-.428Z" transform="translate(-267.664 2538.464)"/>
    <path id="adobephotoshop" class="cls-2" d="M45.284,45.427c0-.461.153-.844.768-.844,4.835-.23,11.743-.384,19.188-.384,20.723,0,29.78,11.359,29.78,25.942,0,19.035-13.969,27.17-30.855,27.17-2.84,0-3.838-.154-5.833-.154v29.166c0,.614-.23.844-.844.844H46.128c-.614,0-.844-.23-.844-.844ZM58.332,85.185c1.689.154,3.07.154,6.063.154,8.75,0,17.116-3.07,17.116-14.967,0-9.517-5.987-14.353-16.041-14.353-2.993,0-5.833.154-7.138.23Zm66.928-8.9c-5.91,0-7.906,2.993-7.906,5.449,0,2.686,1.382,4.605,9.287,8.673,11.743,5.68,15.427,11.129,15.427,19.188,0,11.973-9.134,18.421-21.491,18.421-6.524,0-12.357-1.382-15.581-3.224a1.181,1.181,0,0,1-.614-1.228V112.509c0-.768.384-1,.844-.614a28.8,28.8,0,0,0,15.351,4.452c5.91,0,8.366-2.456,8.366-5.833,0-2.686-1.689-5.066-9.287-9.057-10.669-5.066-15.044-10.285-15.044-18.881,0-9.671,7.522-17.653,20.646-17.653,6.447,0,11.206,1,13.662,2.072a1.658,1.658,0,0,1,.768,1.458V78.738a.738.738,0,0,1-1.075.768A27.926,27.926,0,0,0,125.26,76.282ZM32.62.45A32.592,32.592,0,0,0,0,33.07V147.431a32.592,32.592,0,0,0,32.62,32.62H151.586a32.592,32.592,0,0,0,32.62-32.62V33.07A32.592,32.592,0,0,0,151.586.45Zm2.917,7.675H148.593a27.861,27.861,0,0,1,27.861,27.861V144.438a27.815,27.815,0,0,1-27.784,27.938H35.536A27.908,27.908,0,0,1,7.675,144.515V35.986A27.908,27.908,0,0,1,35.536,8.125Z" transform="translate(202.335 2538.014)"/>
    <path id="adobe-xd" class="cls-2" d="M153.363,10.845H32.982A32.965,32.965,0,0,0-.024,43.852v115.7a32.965,32.965,0,0,0,33.006,33.006H153.358a32.965,32.965,0,0,0,33.012-33.006V43.852a32.965,32.965,0,0,0-33.006-33.006Zm25.152,145.678a28.1,28.1,0,0,1-28.093,28.269H35.928A28.228,28.228,0,0,1,7.742,156.606V46.8A28.228,28.228,0,0,1,35.928,18.612h114.4A28.19,28.19,0,0,1,178.51,46.792ZM73.667,95.88l21.756,41.777c.4.637.155,1.243-.461,1.243H81.433a1.459,1.459,0,0,1-1.605-1c-4.97-10.251-10.044-20.5-15.232-31.515h-.145q-7.163,15.908-14.776,31.608a1.452,1.452,0,0,1-1.393.844H35.473c-.787,0-.844-.637-.45-1.087L56.286,97.216,35.721,56.205c-.492-.637,0-1.092.45-1.092H49.524c.787,0,1.092.155,1.4.844q7.435,15.5,14.533,31.158H65.6c4.52-10.251,9.5-20.9,14.29-31.065.4-.637.637-1.03,1.4-1.03H93.781c.637,0,.88.492.492,1.092Zm25.571,12.654c0-18.08,12.017-32.219,31.127-32.219a34.393,34.393,0,0,1,4.038.155V55.9a.777.777,0,0,1,.787-.792h12.255c.637,0,.792.238.792.606v71.325a53.331,53.331,0,0,0,.4,7.58c0,.492-.155.637-.637.885a46.406,46.406,0,0,1-19.871,4.489c-16.868.088-28.885-10.314-28.885-31.458Zm35.171-19.871a11.964,11.964,0,0,0-4.5-.787c-9.791,0-16.62,7.549-16.62,20.052,0,14.29,6.974,20.021,15.771,20.021a14.252,14.252,0,0,0,5.343-.844Z" transform="translate(-34.11 2525.506)"/>
  </g>
</svg>
