<svg xmlns="http://www.w3.org/2000/svg" width="22.507" height="28.026" viewBox="0 0 22.507 28.026">
  <defs>
    <style>
      .cls-1 {
        fill: #fff;
      }
    </style>
  </defs>
  <path id="Icon_awesome-angle-double-down" data-name="Icon awesome-angle-double-down" class="cls-1" d="M10.055,18.021.492,8.459a1.681,1.681,0,0,1,0-2.384L2.081,4.486a1.681,1.681,0,0,1,2.384,0l6.778,6.778,6.778-6.778a1.681,1.681,0,0,1,2.384,0l1.6,1.582a1.681,1.681,0,0,1,0,2.384l-9.562,9.563A1.683,1.683,0,0,1,10.055,18.021Zm2.391,13.5,9.563-9.562a1.681,1.681,0,0,0,0-2.384l-1.589-1.589a1.681,1.681,0,0,0-2.384,0L11.25,24.757,4.472,17.979a1.681,1.681,0,0,0-2.384,0l-1.6,1.589a1.681,1.681,0,0,0,0,2.384l9.563,9.563A1.683,1.683,0,0,0,12.445,31.521Z" transform="translate(0.003 -3.99)"/>
</svg>
