<svg id="Icon_ionic-ios-document" data-name="Icon ionic-ios-document" xmlns="http://www.w3.org/2000/svg" width="17.613" height="23.175" viewBox="0 0 17.613 23.175">
  <path id="Path_6" data-name="Path 6" d="M21.7,9.674h5.272a.287.287,0,0,0,.29-.29h0a1.715,1.715,0,0,0-.62-1.327L22.224,4.373a1.861,1.861,0,0,0-1.193-.429h0a.428.428,0,0,0-.429.429v4.2A1.1,1.1,0,0,0,21.7,9.674Z" transform="translate(-9.652 -3.939)" fill="#fff"/>
  <path id="Path_7" data-name="Path 7" d="M16.756,8.572V3.937H9.166A1.859,1.859,0,0,0,7.312,5.791V25.258a1.859,1.859,0,0,0,1.854,1.854h13.9a1.859,1.859,0,0,0,1.854-1.854V11.18H19.363A2.611,2.611,0,0,1,16.756,8.572Z" transform="translate(-7.312 -3.937)" fill="#fff"/>
</svg>
