<svg xmlns="http://www.w3.org/2000/svg" xmlns:xlink="http://www.w3.org/1999/xlink" width="377" height="1080" viewBox="0 0 377 1080">
  <defs>
    <clipPath id="clip-Hero-attention">
      <rect width="377" height="1080"/>
    </clipPath>
  </defs>
  <g id="Hero-attention" clip-path="url(#clip-Hero-attention)">
    <rect width="377" height="1080" fill="#fff"/>
    <g id="Hero_attention" data-name="Hero attention" transform="translate(-1233)">
      <path id="Union_1" data-name="Union 1" d="M0,1080V0H1233V154.372c.75,12.707,6.084,16.628,22.985,16.628h210.348c11.558,0,22.066,5.141,29.877,13.536a50,50,0,0,1,0,72.929c-7.811,8.394-18.32,13.535-29.877,13.535H1282.99A50,50,0,1,0,1283,371h277a50,50,0,1,1,0,100H1282.99A50,50,0,1,0,1283,571h177a50,50,0,0,1,0,100H1282.99A50,50,0,1,0,1283,771h83.5a33.366,33.366,0,0,1,10.643,1.744,50.017,50.017,0,0,1,0,96.512A33.368,33.368,0,0,1,1366.5,871h-111.67c-17.93.435-21.228,8.2-21.825,18.878V1077a3,3,0,0,1-3,3Z" fill="#4c987b"/>
    </g>
  </g>
</svg>
