<svg xmlns="http://www.w3.org/2000/svg" xmlns:xlink="http://www.w3.org/1999/xlink" width="377" height="1080" viewBox="0 0 377 1080">
  <defs>
    <style>
      .cls-1 {
        clip-path: url(#clip-Hero-attention);
      }

      .cls-2 {
        fill: #4c987b;
      }

      .cls-3 {
        fill: #fff;
      }
    </style>
    <clipPath id="clip-Hero-attention">
      <rect width="377" height="1080"/>
    </clipPath>
  </defs>
  <g id="Hero-attention" class="cls-1">
    <rect class="cls-3" width="377" height="1080"/>
    <g id="Hero_attention" data-name="Hero attention" transform="translate(-1233)">
      <path id="BG_hero" data-name="BG hero" class="cls-2" d="M0,0H1233a0,0,0,0,1,0,0V1077a3,3,0,0,1-3,3H0a0,0,0,0,1,0,0V0A0,0,0,0,1,0,0Z"/>
      <path id="bg-fix" class="cls-2" d="M706,639H0V0H706V61h-.009A50,50,0,1,0,706,161V261h-.009A50,50,0,1,0,706,361V461h-.009A50,50,0,1,0,706,561v78Z" transform="translate(577 210)"/>
      <rect id="second-green" class="cls-2" width="680" height="100" rx="50" transform="translate(930 371)"/>
      <rect id="third-green" class="cls-2" width="571" height="100" rx="50" transform="translate(939 571)"/>
      <rect id="bottom-green" class="cls-2" width="475" height="100" rx="50" transform="translate(939 771)"/>
      <rect id="first-green" class="cls-2" width="573" height="100" rx="50" transform="translate(939 171)"/>
    </g>
  </g>
</svg>
