<svg xmlns="http://www.w3.org/2000/svg" width="378" height="1079.236" viewBox="0 0 378 1079.236">
  <path id="Intersection_1" data-name="Intersection 1" d="M1232,0h1V154.372c.751,12.707,6.084,16.628,22.985,16.628h210.348c11.558,0,22.066,5.141,29.877,13.535a50,50,0,0,1,0,72.93C1488.4,265.859,1477.891,271,1466.333,271H1282.99A50,50,0,1,0,1283,371h277a50,50,0,1,1,0,100H1282.99A50,50,0,1,0,1283,571h177a50,50,0,0,1,0,100H1282.99A50,50,0,1,0,1283,771h83.5a33.365,33.365,0,0,1,10.643,1.744,50.017,50.017,0,0,1,0,96.512A33.365,33.365,0,0,1,1366.5,871h-111.67c-17.93.436-21.227,8.2-21.825,18.878V1077a2.993,2.993,0,0,1-1,2.236Z" transform="translate(-1232)" fill="#4c987b"/>
</svg>
