<svg xmlns="http://www.w3.org/2000/svg" xmlns:xlink="http://www.w3.org/1999/xlink" width="390" height="844" viewBox="0 0 390 844">
  <defs>
    <style>
      .cls-1 {
        clip-path: url(#clip-iPhone_12_12_Pro_1);
      }

      .cls-2 {
        opacity: 0.658;
      }

      .cls-3 {
        fill: #5bb491;
      }

      .cls-3, .cls-4, .cls-5 {
        opacity: 0.32;
      }

      .cls-5 {
        fill: #60b293;
      }
    </style>
    <clipPath id="clip-iPhone_12_12_Pro_1">
      <rect width="390" height="844"/>
    </clipPath>
  </defs>
  <g id="iPhone_12_12_Pro_1" data-name="iPhone 12, 12 Pro – 1" class="cls-1">
    <g id="About_me" data-name="About me" transform="translate(-757 -2160)">
      <g id="Group_18" data-name="Group 18" class="cls-2" transform="translate(292.556 -352.212)">
        <path id="Icon_awesome-css3-alt" data-name="Icon awesome-css3-alt" class="cls-3" d="M0,2.25,18.683,214.177l84.1,27.95,84.1-27.95L205.563,2.25ZM167.609,45.085l-2.57,25.326-61.723,26.4-.161.054h59.688l-6.852,78.5-52.569,15.367L50.534,175.09l-3.426-39.569H73.285L75,156.028l28.158,7.121,29.282-8.246,1.981-32.983L45.4,121.653V121.6l-.107.054L43.361,96.862l60.01-25.005,3.48-1.446H41.059l-3.1-25.326Z" transform="translate(896.381 3099.461)"/>
        <path id="Icon_awesome-html5" data-name="Icon awesome-html5" class="cls-3" d="M0,2.25,13.966,160.67l62.666,20.893L139.7,160.67,153.663,2.25ZM123.331,53.442H49.78l1.641,19.773H121.69l-5.442,59.4L77.072,143.419v.12h-.44l-39.5-10.927-2.4-30.339H53.822l1.4,15.25,21.409,5.8,21.489-5.8,2.4-24.9H33.734L28.612,34.35h96.48Z" transform="translate(474.14 2705.265)"/>
        <path id="Icon_simple-php" data-name="Icon simple-php" class="cls-3" d="M87.506,64.956H75.722L69.294,98.018H79.754q10.411,0,15.5-3.921T102.124,81q1.723-8.8-1.548-12.423c-2.185-2.41-6.529-3.621-13.07-3.621ZM149.8,8.532C67.072,8.532,0,43.817,0,87.343s67.072,78.823,149.8,78.823,149.8-35.3,149.8-78.823S232.522,8.532,149.8,8.532ZM109.1,101.564a30.294,30.294,0,0,1-11.447,6.88,53.326,53.326,0,0,1-16.041,2.048H66.872L62.79,131.48h-17.2L60.942,52.495h33.08q14.924,0,21.77,7.841t4.119,21.875a34.421,34.421,0,0,1-10.81,19.353Zm50.232,8.927,6.778-34.948c.786-3.97.487-6.692-.849-8.128s-4.194-2.173-8.576-2.173H143.056L134.268,110.5H117.191l15.354-79H149.61l-4.082,21h15.2q14.362,0,19.8,5.007t3.283,16.219l-7.14,36.758H159.334Zm94.834-28.28a34.74,34.74,0,0,1-3.807,10.576,35.656,35.656,0,0,1-7,8.778,30.458,30.458,0,0,1-11.447,6.88,53.357,53.357,0,0,1-16.053,2.048h-14.73l-4.082,21h-17.2L195.2,52.507h33.068q14.924,0,21.77,7.841,6.853,7.81,4.132,21.863ZM221.774,64.956H210l-6.441,33.063h10.461q10.43,0,15.5-3.921Q234.62,90.164,236.4,81c1.148-5.868.612-10.014-1.56-12.423s-6.541-3.621-13.07-3.621Z" transform="translate(682.995 2980.077)"/>
        <path id="Icon_simple-swift" data-name="Icon simple-swift" class="cls-3" d="M133.857,93.511c.341-.682.341-1.364.682-2.046,8.2-32.108-11.271-69.674-44.736-89.486,14.687,19.812,20.49,43.376,15.369,64.552a33.6,33.6,0,0,1-1.7,5.463,31.494,31.494,0,0,1-2.74-1.705S67.608,49.794,32.1,13.934c-1.029-1.023,19.12,28.686,41.655,52.255C63.175,60.038,33.126,38.527,14.341,21.1a78.8,78.8,0,0,0,8.2,11.273c15.71,20.153,36.2,44.74,60.787,63.523-17.415,10.6-41.661,11.273-66.249,0C10.925,93.17,5.81,89.753,0,85.654,10.243,101.708,26.294,116.4,45.42,124.249c22.876,9.909,46.094,9.227,62.827,0h.347a7.132,7.132,0,0,0,2.046-1.364c8.2-4.1,24.247-8.539,33.124,8.539,2.387,4.781,6.826-17.418-9.9-37.913Z" transform="translate(686.656 2480.559)"/>
        <path id="Icon_awesome-github" data-name="Icon awesome-github" class="cls-3" d="M111.112,261.422c0,1.34-1.54,2.412-3.483,2.412-2.21.2-3.751-.871-3.751-2.412,0-1.34,1.54-2.412,3.483-2.412C109.371,258.81,111.112,259.882,111.112,261.422Zm-20.829-3.015c-.469,1.34.871,2.881,2.88,3.283,1.741.67,3.751,0,4.152-1.34s-.871-2.881-2.88-3.483C92.694,256.4,90.752,257.068,90.283,258.408Zm29.6-1.139c-1.942.469-3.282,1.742-3.081,3.283.2,1.34,1.942,2.211,3.952,1.742,1.942-.469,3.282-1.742,3.081-3.082C123.637,257.939,121.828,257.068,119.886,257.269ZM163.956.563C71.061.563,0,71.1,0,164.019c0,74.292,46.749,137.866,113.523,160.241,8.573,1.541,11.587-3.751,11.587-8.106,0-4.153-.2-27.064-.2-41.132,0,0-46.883,10.048-56.728-19.963,0,0-7.635-19.494-18.619-24.518,0,0-15.337-10.517,1.072-10.316a35.352,35.352,0,0,1,25.852,17.283c14.668,25.858,39.248,18.422,48.825,14,1.54-10.718,5.894-18.154,10.716-22.576-37.439-4.153-75.213-9.58-75.213-74.024,0-18.422,5.09-27.667,15.806-39.457-1.741-4.354-7.434-22.308,1.741-45.486,14-4.354,46.213,18.087,46.213,18.087a158.189,158.189,0,0,1,84.121,0s32.215-22.509,46.213-18.087c9.176,23.246,3.483,41.132,1.741,45.486,10.716,11.857,17.28,21.1,17.28,39.457,0,64.646-39.449,69.8-76.888,74.024,6.162,5.292,11.386,15.341,11.386,31.083,0,22.576-.2,50.511-.2,56,0,4.354,3.081,9.647,11.587,8.106C286.789,301.885,332.2,238.311,332.2,164.019,332.2,71.1,256.851.563,163.956.563ZM65.1,231.612c-.871.67-.67,2.211.469,3.484,1.072,1.072,2.612,1.541,3.483.67.871-.67.67-2.211-.469-3.483C67.511,231.21,65.971,230.741,65.1,231.612Zm-7.233-5.426c-.469.871.2,1.943,1.54,2.613a1.993,1.993,0,0,0,2.88-.469c.469-.871-.2-1.943-1.54-2.613C59.407,225.315,58.336,225.516,57.867,226.186Zm21.7,23.848c-1.072.871-.67,2.881.871,4.153,1.54,1.541,3.483,1.742,4.353.67.871-.871.469-2.881-.871-4.153C82.447,249.163,80.437,248.962,79.567,250.034Zm-7.635-9.848c-1.072.67-1.072,2.412,0,3.952s2.88,2.211,3.751,1.541c1.072-.871,1.072-2.613,0-4.153C74.745,239.986,73,239.316,71.932,240.187Z" transform="translate(659.444 2645.077)"/>
        <path id="Icon_simple-sass" data-name="Icon simple-sass" class="cls-3" d="M115.373,0A115.4,115.4,0,1,1,0,115.4,115.391,115.391,0,0,1,115.373,0ZM92.442,153.845a29.5,29.5,0,0,1-.231,17.233l-.625,1.731c-.231.587-.5,1.154-.75,1.693a32.351,32.351,0,0,1-5.336,7.789c-6.711,7.3-16.075,10.069-20.094,7.741-4.326-2.519-2.173-12.838,5.615-21.06C79.4,160.144,91.4,154.461,91.4,154.461v-.029l1.038-.587ZM187.731,49.4c-5.211-20.512-39.2-27.253-71.358-15.819C97.25,40.38,76.531,51.064,61.638,65,43.919,81.548,41.1,95.973,42.265,102,46.37,123.265,75.5,137.17,87.481,147.489v.058c-3.528,1.731-29.382,14.7-35.439,28.128-6.49,14.136,1.01,24.243,5.913,25.532,15.143,4.193,30.718-3.462,39.083-15.858,8.076-12.126,7.365-27.705,3.884-35.35a44.851,44.851,0,0,1,17.594-1c20.2,2.308,24.238,15,23.363,20.195s-5.028,8.213-6.48,9.078-1.875,1.154-1.74,1.741c.144.866.875.866,2.019.721,1.586-.288,10.537-4.327,10.97-14.146.433-12.405-11.4-26.244-32.449-25.965-8.653.154-14.143.875-18.027,2.462a3.484,3.484,0,0,0-1.01-1.01c-12.979-13.992-37.063-23.8-36.054-42.409.288-6.78,2.74-24.657,46.149-46.294C140.88,35.62,169.3,40.534,174.2,51.352c7.047,15.425-15.152,44.14-52.216,48.313-14.133,1.587-21.488-3.885-23.373-5.914-2.009-2.164-2.3-2.308-3.019-1.866-1.154.577-.433,2.452,0,3.606,1.154,2.885,5.624,7.934,13.422,10.53,6.769,2.164,23.363,3.452,43.265-4.327,22.344-8.645,39.794-32.744,34.746-52.939l.7.644Z" transform="translate(446.684 3129.029)"/>
        <g id="Icon_ionic-logo-wordpress" data-name="Icon ionic-logo-wordpress" class="cls-4" transform="translate(-264.289 2419.312)">
          <path id="Path_8" data-name="Path 8" class="cls-3" d="M68.621,19.076,37.954,108.553H37.86L14.112,176.9c1.683.467,3.272.841,4.955,1.309h.28a179.994,179.994,0,0,0,46.281,6.077A146.768,146.768,0,0,0,88.91,182.6a172.311,172.311,0,0,0,30.387-6.638h0c2.431-.748,4.862-1.589,7.293-2.431-2.618-5.61-8.228-18.045-8.508-18.606Z" transform="translate(113.743 174.909)"/>
          <path id="Path_9" data-name="Path 9" class="cls-3" d="M20.208,12.691C10.858,33.822,4.5,59.814,4.5,83.282c0,5.89.28,11.781.841,17.578,6.451,66.57,49.46,122.482,108.551,147.633,2.431,1.028,4.955,2.057,7.48,2.992L34.419,12.785C26.939,12.5,25.537,12.972,20.208,12.691Z" transform="translate(-4.5 96.397)"/>
          <path id="Path_10" data-name="Path 10" class="cls-3" d="M325.352,108.706A175.839,175.839,0,0,0,311.23,83.824c-1.5-2.245-3.18-4.49-4.77-6.735a180.519,180.519,0,0,0-79.4-60.428A176.906,176.906,0,0,0,162.345,4.5,179.09,179.09,0,0,0,22.624,71.57,183.39,183.39,0,0,0,6.258,95.517c13.28.094,29.74.094,31.61.094,16.927,0,43.02-2.058,43.02-2.058,8.791-.561,9.726,12.254,1.029,13.283,0,0-8.791,1.029-18.517,1.5l58.825,174.924,35.351-105.984-25.064-68.847c-8.791-.468-16.927-1.5-16.927-1.5-8.791-.468-7.669-13.844.935-13.283,0,0,26.654,2.058,42.552,2.058,16.927,0,43.02-2.058,43.02-2.058,8.7-.561,9.82,12.254,1.029,13.283,0,0-8.7,1.029-18.424,1.5L242.96,282.04l16.179-53.88c8.136-20.953,12.251-38.259,12.251-52.1,0-19.925-7.2-33.769-13.374-44.526-8.136-13.377-15.805-24.6-15.805-37.791,0-14.873,11.223-28.718,27.121-28.718h2.058c24.5-.655,32.545,23.666,33.574,40.223v.561c.374,6.735.094,11.693.094,17.586,0,16.276-3.086,34.7-12.251,57.809L256.333,286.717l-20.855,61.457c1.683-.748,3.273-1.5,4.957-2.339,53.027-25.631,91.651-76.7,99.787-137.227A161,161,0,0,0,342,184.288,178.8,178.8,0,0,0,325.352,108.706Z" transform="translate(17.117 -4.5)"/>
        </g>
        <path id="Icon_simple-javascript" data-name="Icon simple-javascript" class="cls-3" d="M0,0H275.169V275.23H0ZM252.628,209.587c-2.006-12.557-10.181-23.108-34.43-32.947-8.439-3.956-17.817-6.709-20.6-13.073-1.043-3.784-1.2-5.849-.527-8.085,1.72-7.408,10.491-9.633,17.37-7.569,4.471,1.376,8.6,4.817,11.19,10.321,11.855-7.752,11.855-7.752,20.122-12.9-3.1-4.816-4.632-6.892-6.719-8.945-7.223-8.085-16.843-12.213-32.493-11.858l-8.083,1.021c-7.751,1.892-15.134,6.021-19.606,11.525-13.071,14.805-9.3,40.608,6.524,51.273,15.65,11.7,38.535,14.266,41.459,25.287,2.752,13.417-9.975,17.718-22.541,16.17-9.3-2.064-14.446-6.72-20.122-15.321l-20.982,12.053c2.408,5.5,5.159,7.9,9.287,12.718,19.95,20.138,69.824,19.105,78.779-11.514.332-1.032,2.752-8.085.848-18.922l.527.768ZM149.634,126.5H123.86c0,22.225-.1,44.312-.1,66.571,0,14.128.722,27.1-1.582,31.089-3.784,7.9-13.529,6.892-17.955,5.5-4.54-2.248-6.845-5.344-9.516-9.805a9.837,9.837,0,0,0-1.456-2.248l-20.924,12.9c3.5,7.225,8.6,13.44,15.18,17.4,9.8,5.849,22.977,7.741,36.769,4.645,8.977-2.592,16.717-7.924,20.764-16.181,5.847-10.665,4.609-23.739,4.552-38.372.138-23.555,0-47.122,0-70.86l.046-.642Z" transform="translate(372.634 2407.887)"/>
        <path id="adobephotoshop" class="cls-3" d="M66.112,66.113c0-.672.224-1.233,1.121-1.233,7.059-.336,17.144-.56,28.013-.56,30.254,0,43.477,16.584,43.477,37.874,0,27.789-20.394,39.667-45.046,39.667-4.146,0-5.6-.224-8.516-.224v42.58c0,.9-.336,1.233-1.233,1.233H67.344c-.9,0-1.233-.336-1.233-1.233Zm19.049,58.044c2.465.224,4.482.224,8.852.224,12.774,0,24.988-4.482,24.988-21.85,0-13.895-8.74-20.954-23.419-20.954-4.37,0-8.516.224-10.421.336Zm97.711-13c-8.628,0-11.542,4.37-11.542,7.956,0,3.922,2.017,6.723,13.559,12.662,17.144,8.292,22.523,16.248,22.523,28.013,0,17.48-13.334,26.893-31.375,26.893-9.525,0-18.041-2.017-22.747-4.706a1.725,1.725,0,0,1-.9-1.793V164.048c0-1.121.56-1.457,1.233-.9a42.053,42.053,0,0,0,22.411,6.5c8.628,0,12.214-3.586,12.214-8.516,0-3.922-2.465-7.4-13.558-13.222-15.575-7.4-21.963-15.015-21.963-27.565,0-14.119,10.981-25.772,30.142-25.772,9.413,0,16.36,1.457,19.946,3.025a2.421,2.421,0,0,1,1.12,2.129v15.015a1.077,1.077,0,0,1-1.569,1.121c-4.93-2.913-12.438-4.706-19.5-4.706ZM47.623.45A47.583,47.583,0,0,0,0,48.073v166.96a47.583,47.583,0,0,0,47.623,47.623H221.306a47.583,47.583,0,0,0,47.623-47.623V48.073A47.583,47.583,0,0,0,221.306.45Zm4.258,11.205H216.936a40.676,40.676,0,0,1,40.676,40.676V210.663a40.608,40.608,0,0,1-40.563,40.788H51.881a40.744,40.744,0,0,1-40.676-40.676V52.331A40.744,40.744,0,0,1,51.881,11.655Z" transform="translate(719.98 3171.793)"/>
        <path id="adobe-xd" class="cls-3" d="M147.022,10.845H31.618A31.6,31.6,0,0,0-.024,42.487V153.4a31.6,31.6,0,0,0,31.642,31.642h115.4A31.6,31.6,0,0,0,178.663,153.4V42.487a31.6,31.6,0,0,0-31.642-31.642ZM171.134,150.5A26.941,26.941,0,0,1,144.2,177.6H34.442A27.06,27.06,0,0,1,7.421,150.58V45.311A27.06,27.06,0,0,1,34.442,18.29H144.108a27.025,27.025,0,0,1,27.021,27.016ZM70.62,92.364l20.856,40.05c.382.611.149,1.191-.442,1.191H78.065a1.4,1.4,0,0,1-1.539-.958c-4.765-9.828-9.629-19.655-14.6-30.212h-.139q-6.867,15.251-14.166,30.3a1.392,1.392,0,0,1-1.335.809H34c-.754,0-.809-.61-.432-1.042L53.958,93.645,34.243,54.33c-.472-.61,0-1.047.432-1.047h12.8c.754,0,1.047.149,1.34.809q7.128,14.859,13.932,29.87h.139c4.333-9.828,9.108-20.037,13.7-29.78.382-.611.611-.988,1.34-.988H89.9c.61,0,.844.472.472,1.047Zm24.514,12.131c0-17.332,11.52-30.887,29.84-30.887a32.972,32.972,0,0,1,3.871.149V54.037a.745.745,0,0,1,.754-.759h11.748c.611,0,.759.228.759.581v68.376a51.127,51.127,0,0,0,.382,7.266c0,.471-.149.61-.611.849a44.487,44.487,0,0,1-19.05,4.3c-16.171.084-27.691-9.887-27.691-30.158Zm33.716-19.05a11.47,11.47,0,0,0-4.313-.754c-9.386,0-15.932,7.237-15.932,19.223,0,13.7,6.686,19.193,15.119,19.193a13.663,13.663,0,0,0,5.122-.809Z" transform="translate(486.638 2909.983)"/>
      </g>
      <path id="Path_11" data-name="Path 11" class="cls-5" d="M1920,844h0Z" transform="translate(0 2160)"/>
    </g>
  </g>
</svg>
